<svg xmlns="http://www.w3.org/2000/svg" viewBox="0 0 1024 1024" width="32" height="32">
  <path d="M912.896 411.76576c0-221.40416-179.47136-400.89088-400.89088-400.89088-221.37856 0-400.896 179.48672-400.896 400.89088 0 132.1728 64.256 249.04704 162.90816 322.06848h-0.3584s1.12128 0.73728 2.9184 1.94048c6.61504 4.31616 13.46048 8.6784 20.40832 13.95712 28.1344 19.84 76.50304 56.17152 115.68128 97.17248C471.64928 908.57472 512 1013.13024 512 1013.13024s37.84192-103.35232 102.14912-166.35392 136.448-112.94208 136.448-112.94208h-0.59904c98.66752-73.02656 162.89792-189.89568 162.89792-322.06848z" fill="#00D500"/>
  <path d="M512.00512 411.76576m-347.43808 0a347.43808 347.43808 0 1 0 694.87616 0 347.43808 347.43808 0 1 0-694.87616 0Z" fill="#FFFFFF"/>
  <path d="M512.00512 117.78048c162.39104 0 293.98016 131.61984 293.98016 293.98528 0 162.37056-131.58912 293.98528-293.98016 293.98528-162.34496 0-293.98528-131.61472-293.98528-293.98528 0-162.36544 131.64032-293.98528 293.98528-293.98528z" fill="#00D500"/>
  <path d="M690.46784 383.08864a11.38176 11.38176 0 0 0-2.9696-2.06848 12.1344 12.1344 0 0 0-7.40864-2.49856h-116.1984l39.04512-164.58752c0.36352-1.60256 0.36352-3.26656 0.0512-4.87424a11.264 11.264 0 0 0-3.49696-7.76192 12.19584 12.19584 0 0 0-16.86016 0.08192L355.13344 424.192a11.12064 11.12064 0 0 0-3.43552 8.97536 11.6992 11.6992 0 0 0 3.17952 8.80128 11.6736 11.6736 0 0 0 8.66304 3.61984h120.00256l-39.98208 162.11968a12.12416 12.12416 0 0 0-0.31744 2.75456 11.29984 11.29984 0 0 0 2.92352 11.78112c2.35008 2.24256 5.376 3.34336 8.37632 3.34336a12.1344 12.1344 0 0 0 8.48384-3.42528l227.49184-222.7968c2.24256-2.11456 3.49696-5.08416 3.44576-8.17152a11.07968 11.07968 0 0 0-3.49696-8.10496z" fill="#FFFFFF"/>
</svg>